<?xml version="1.0" standalone="no"?>
<!DOCTYPE svg PUBLIC "-//W3C//DTD SVG 20010904//EN"
 "http://www.w3.org/TR/2001/REC-SVG-20010904/DTD/svg10.dtd">
<svg version="1.0" xmlns="http://www.w3.org/2000/svg"
 width="466.000000pt" height="466.000000pt" viewBox="0 0 466.000000 466.000000"
 preserveAspectRatio="xMidYMid meet">
<metadata>
Created by potrace 1.14, written by Peter Selinger 2001-2017
</metadata>
<g transform="translate(0.000000,466.000000) scale(0.100000,-0.100000)"
fill="#000000" stroke="none">
<path d="M3880 3772 c-68 -23 -124 -58 -171 -108 -82 -88 -103 -143 -125 -318
-22 -179 -49 -303 -103 -465 -55 -165 -104 -272 -203 -444 -37 -66 -74 -138
-82 -160 -46 -139 -16 -294 79 -405 39 -45 38 -53 -3 -24 -76 53 -274 72 -377
38 -207 -71 -330 -236 -342 -461 -5 -89 -3 -108 21 -178 33 -97 64 -147 135
-217 55 -54 149 -110 184 -110 9 0 17 -4 17 -8 0 -11 67 -17 155 -15 86 1 120
8 167 34 10 5 23 9 29 9 15 0 110 69 132 97 10 13 25 30 33 37 8 8 14 19 14
25 0 6 3 11 8 11 8 0 39 73 44 104 2 14 -7 22 -42 34 -86 28 -88 31 -18 31 65
1 68 2 83 32 12 22 15 54 14 120 -2 49 -7 89 -11 89 -4 0 -8 9 -8 20 0 24 -50
134 -77 169 -10 13 -31 37 -48 52 -37 36 -32 36 41 2 53 -25 70 -28 169 -28
98 0 116 3 162 25 l51 26 -36 -46 c-21 -25 -39 -47 -42 -50 -10 -10 -49 -96
-66 -145 -11 -33 -16 -80 -16 -140 1 -89 3 -105 15 -135 3 -8 7 -24 9 -35 2
-11 5 -22 8 -25 3 -3 19 -32 35 -64 78 -155 237 -249 425 -250 123 -1 168 13
305 98 27 17 105 106 105 120 0 3 11 29 25 58 24 51 23 66 -6 72 -8 2 -21 6
-29 9 -8 3 -28 9 -45 14 -25 6 -19 8 36 11 60 3 67 5 80 29 17 32 17 174 -1
230 -15 47 -56 139 -73 160 -28 37 -124 129 -147 142 -57 33 -76 41 -97 41
-12 0 -25 5 -28 10 -3 6 -30 10 -59 10 -28 0 -57 5 -63 11 -8 8 -13 8 -17 0
-4 -6 -25 -11 -47 -11 -45 0 -126 -24 -179 -53 l-35 -19 37 39 c64 67 100 157
113 283 32 330 142 656 318 949 76 127 90 171 90 276 0 75 -4 101 -27 156 -39
95 -109 169 -203 216 -68 33 -84 37 -167 40 -68 2 -105 -2 -146 -15z m185
-266 c72 -31 99 -136 50 -195 -53 -63 -142 -65 -194 -5 -58 65 -36 165 43 200
40 17 59 17 101 0z m-438 -1257 c93 -35 116 -144 45 -212 -78 -75 -212 -16
-212 93 0 46 33 98 73 115 39 17 57 18 94 4z m-497 -612 c29 -13 100 -81 100
-95 0 -5 -80 -9 -190 -8 -104 0 -190 4 -190 8 0 4 5 8 10 8 6 0 10 5 10 11 0
6 12 23 28 38 57 56 158 73 232 38z m1095 1 c28 -11 105 -81 105 -97 0 -4 -83
-7 -185 -7 -208 0 -215 3 -151 65 57 55 146 70 231 39z m-985 -363 c0 -10 -34
-60 -54 -80 -42 -42 -174 -72 -191 -45 -3 6 -15 10 -26 10 -22 0 -99 69 -99
88 0 7 -4 12 -10 12 -5 0 -10 5 -10 10 0 6 72 10 195 10 107 0 195 -2 195 -5z
m1090 -15 c0 -11 -4 -20 -8 -20 -5 0 -14 -11 -22 -24 -7 -13 -29 -32 -49 -42
-20 -9 -44 -21 -53 -25 -27 -14 -82 -11 -124 7 -42 17 -114 80 -114 100 0 7
-6 15 -12 17 -7 3 76 6 185 6 191 1 197 0 197 -19z"/>
<path d="M373 3436 c-69 -22 -126 -61 -186 -125 -71 -77 -98 -146 -104 -261
-4 -78 -2 -95 32 -195 72 -217 107 -405 121 -648 l7 -128 51 51 c71 71 186
127 293 142 98 13 178 3 274 -36 35 -14 65 -23 67 -21 3 2 -3 53 -13 112 -23
149 -29 408 -13 568 7 72 10 157 7 191 -13 135 -108 266 -237 327 -59 28 -79
32 -162 34 -59 2 -111 -3 -137 -11z m214 -300 c28 -30 33 -43 33 -85 0 -158
-230 -174 -247 -17 -11 92 43 150 131 143 42 -4 55 -10 83 -41z"/>
<path d="M2300 2983 c-140 -15 -282 -120 -335 -246 -19 -47 -20 -229 -1 -310
37 -157 174 -255 395 -283 232 -28 431 -78 616 -153 54 -23 100 -39 102 -37 2
2 -3 29 -12 62 -18 69 -19 172 -4 246 14 67 42 125 119 257 33 57 60 105 58
107 -2 1 -57 20 -123 42 -161 53 -310 120 -458 205 -167 96 -251 122 -357 110z
m123 -321 c39 -40 48 -111 19 -158 -74 -117 -260 -44 -234 92 18 99 143 137
215 66z"/>
<path d="M1877 2270 c-3 -8 -17 -58 -31 -110 -51 -191 -134 -385 -246 -575
-67 -113 -85 -159 -95 -237 -19 -149 68 -323 198 -397 170 -96 361 -77 503 52
88 79 122 165 144 357 20 176 83 422 147 574 13 32 23 59 21 61 -2 2 -64 10
-138 20 -74 9 -160 23 -190 31 -106 29 -229 120 -292 214 -12 19 -17 22 -21
10z m130 -894 c28 -30 33 -43 33 -86 0 -64 -35 -107 -98 -121 -82 -18 -152 40
-152 126 0 114 140 166 217 81z"/>
<path d="M529 2132 c-195 -72 -308 -254 -280 -452 27 -195 174 -334 382 -361
275 -36 498 -92 690 -175 45 -19 84 -33 86 -31 2 2 -4 33 -13 68 -20 78 -15
231 10 299 9 25 50 104 91 175 41 72 75 133 75 137 0 3 -15 9 -34 12 -136 26
-415 142 -593 249 -62 36 -135 73 -164 81 -68 21 -191 19 -250 -2z m165 -276
c50 -21 76 -60 76 -117 0 -120 -144 -170 -225 -79 -15 17 -20 36 -20 80 0 64
17 93 70 116 39 17 58 17 99 0z"/>
</g>
</svg>
